<?xml version="1.0" encoding="utf-8"?>
<!-- Generator: Adobe Illustrator 28.0.0, SVG Export Plug-In . SVG Version: 6.00 Build 0)  -->
<svg version="1.1" id="Layer_2_00000018213712314226152990000015733802731845106080_"
	 xmlns="http://www.w3.org/2000/svg" xmlns:xlink="http://www.w3.org/1999/xlink" x="0px" y="0px" viewBox="0 0 536.6 80"
	 style="enable-background:new 0 0 536.6 80;" xml:space="preserve">
<style type="text/css">
	.st0{fill:#FFFFFF;}
</style>
<g>
	<path class="st0" d="M56.9,48.8c-0.2,3.8-1.2,7.1-3.1,10.1c-1.9,2.9-4.5,5.2-7.9,6.8c-3.4,1.6-7.2,2.4-11.6,2.4
		c-7.2,0-12.8-2.3-16.9-7s-6.2-11.3-6.2-19.8v-2.7c0-5.3,0.9-10,2.8-14c1.9-4,4.5-7.1,8-9.3c3.5-2.2,7.5-3.3,12.1-3.3
		c6.6,0,11.9,1.7,16,5.2c4,3.5,6.3,8.3,6.9,14.4H43.9c-0.1-3.3-0.9-5.7-2.5-7.2c-1.6-1.4-4-2.2-7.2-2.2c-3.3,0-5.7,1.2-7.2,3.7
		c-1.5,2.4-2.3,6.4-2.4,11.7v3.9c0,5.8,0.7,10,2.2,12.5c1.5,2.5,4,3.7,7.5,3.7c3,0,5.3-0.7,6.9-2.1c1.6-1.4,2.4-3.7,2.5-6.8H56.9z"
		/>
	<path class="st0" d="M109.3,41.1c0,5.3-1,10-3,14.1c-2,4.1-4.8,7.2-8.4,9.5c-3.6,2.2-7.8,3.3-12.4,3.3c-4.6,0-8.8-1.1-12.4-3.2
		c-3.6-2.1-6.4-5.2-8.4-9.2c-2-4-3.1-8.5-3.2-13.7v-3.1c0-5.3,1-10.1,2.9-14.1c2-4.1,4.8-7.2,8.4-9.5c3.7-2.2,7.8-3.3,12.5-3.3
		c4.6,0,8.7,1.1,12.4,3.3c3.6,2.2,6.4,5.3,8.4,9.4c2,4.1,3,8.7,3.1,14V41.1z M95.9,38.8c0-5.4-0.9-9.5-2.7-12.3
		c-1.8-2.8-4.4-4.2-7.8-4.2c-6.6,0-10.1,4.9-10.5,14.8l0,4c0,5.3,0.9,9.5,2.7,12.3c1.8,2.9,4.4,4.3,7.9,4.3c3.3,0,5.9-1.4,7.7-4.2
		c1.8-2.8,2.7-6.9,2.7-12.2V38.8z"/>
	<path class="st0" d="M116.1,67.3V12.7h17.6c4.8,0,9.2,1.1,13,3.3c3.8,2.2,6.8,5.3,9,9.3c2.2,4,3.3,8.4,3.3,13.4v2.5
		c0,5-1.1,9.5-3.2,13.4c-2.1,4-5.1,7.1-8.9,9.3c-3.8,2.2-8.1,3.4-12.8,3.4H116.1z M129.2,22.9v34.3h4.6c3.8,0,6.7-1.3,8.7-4
		c2-2.7,3-6.7,3-12v-2.4c0-5.3-1-9.2-3-11.9c-2-2.7-5-4-8.8-4H129.2z"/>
	<path class="st0" d="M199.5,44.1h-20.7v13h24.4v10.1h-37.6V12.7h37.6v10.2h-24.5v11.5h20.7V44.1z"/>
	<path class="st0" d="M225.9,12.7l12.2,37.9l12.1-37.9h17.3v54.5h-13.2V54.5l1.3-26.1l-13.2,38.8h-8.7l-13.2-38.8l1.3,26.1v12.7
		h-13.1V12.7H225.9z"/>
	<path class="st0" d="M307.5,57.1h-18l-3.1,10.2h-14l20-54.5h12.4l20.2,54.5h-14.1L307.5,57.1z M292.7,46.9h11.7L298.5,28
		L292.7,46.9z"/>
	<path class="st0" d="M356.9,52.8c0-1.9-0.7-3.4-2-4.5c-1.4-1.1-3.8-2.2-7.2-3.3c-3.4-1.1-6.2-2.3-8.4-3.3
		c-7.1-3.5-10.6-8.2-10.6-14.3c0-3,0.9-5.7,2.6-8c1.8-2.3,4.3-4.1,7.5-5.4c3.2-1.3,6.8-1.9,10.9-1.9c3.9,0,7.4,0.7,10.5,2.1
		c3.1,1.4,5.5,3.4,7.2,6c1.7,2.6,2.6,5.5,2.6,8.9H357c0-2.2-0.7-3.9-2-5.2c-1.4-1.2-3.2-1.8-5.5-1.8c-2.3,0-4.2,0.5-5.6,1.6
		c-1.4,1-2,2.4-2,4c0,1.4,0.7,2.7,2.2,3.8c1.5,1.1,4.1,2.3,7.9,3.5c3.8,1.2,6.9,2.5,9.3,3.9c5.9,3.4,8.8,8.1,8.8,14
		c0,4.8-1.8,8.5-5.4,11.2c-3.6,2.7-8.5,4.1-14.8,4.1c-4.4,0-8.4-0.8-12-2.4c-3.6-1.6-6.3-3.8-8.1-6.5c-1.8-2.8-2.7-5.9-2.7-9.5h13.2
		c0,2.9,0.8,5.1,2.3,6.5c1.5,1.4,4,2.1,7.4,2.1c2.2,0,3.9-0.5,5.2-1.4C356.3,55.8,356.9,54.5,356.9,52.8z"/>
	<path class="st0" d="M419.7,22.9h-16.4v44.4h-13.1V22.9h-16.1V12.7h45.6V22.9z"/>
	<path class="st0" d="M459,44.1h-20.7v13h24.4v10.1h-37.6V12.7h37.6v10.2h-24.5v11.5H459V44.1z"/>
	<path class="st0" d="M488.4,48h-7.1v19.3h-13.1V12.7h21.5c6.5,0,11.5,1.4,15.2,4.3c3.6,2.9,5.5,6.9,5.5,12.2c0,3.8-0.8,6.9-2.3,9.4
		c-1.5,2.5-3.9,4.5-7.2,6.1l11.4,22v0.6H498L488.4,48z M481.3,37.9h8.3c2.5,0,4.4-0.7,5.6-2c1.3-1.3,1.9-3.1,1.9-5.5
		s-0.6-4.2-1.9-5.5c-1.3-1.3-3.1-2-5.6-2h-8.3V37.9z"/>
</g>
</svg>
